<?xml version="1.0" encoding="utf-8"?>
<!-- Generator: Adobe Illustrator 21.1.0, SVG Export Plug-In . SVG Version: 6.00 Build 0)  -->
<svg version="1.1" id="Слой_1" xmlns="http://www.w3.org/2000/svg" xmlns:xlink="http://www.w3.org/1999/xlink" x="0px" y="0px"
	 viewBox="0 0 512 512" style="enable-background:new 0 0 512 512;" xml:space="preserve">
<style type="text/css">
	.st0{clip-path:url(#SVGID_2_);}
</style>
<g>
	<defs>
		<rect id="SVGID_1_" width="512" height="512"/>
	</defs>
	<clipPath id="SVGID_2_">
		<use xlink:href="#SVGID_1_"  style="overflow:visible;"/>
	</clipPath>
	<path style="fill:#363b66" class="st0" d="M444.1,291.5l-99.3-88.4c-5.4-4.8-13.7-4.3-18.5,1.1c-4.8,5.4-4.3,13.7,1.1,18.5l88.3,78.5l-88.3,78.5
		c-5.4,4.8-5.9,13.1-1.1,18.5c2.6,2.9,6.2,4.4,9.8,4.4c3.1,0,6.2-1.1,8.7-3.3l99.3-88.4c2.8-2.5,4.4-6.1,4.4-9.8
		C448.5,297.5,446.9,294,444.1,291.5"/>
	<path style="fill:#363b66" class="st0" d="M185.7,204.2c-4.8-5.4-13.1-5.9-18.5-1.1l-99.3,88.4c-2.8,2.5-4.4,6.1-4.4,9.8s1.6,7.3,4.4,9.8l99.3,88.4
		c2.5,2.2,5.6,3.3,8.7,3.3c3.6,0,7.2-1.5,9.8-4.4c4.8-5.4,4.3-13.7-1.1-18.5l-88.3-78.5l88.3-78.5
		C190.1,217.9,190.5,209.6,185.7,204.2"/>
	<path style="fill:#363b66" class="st0" d="M287.4,196.6c-6.9-2.1-14.3,1.8-16.4,8.8l-55.1,182c-2.1,6.9,1.8,14.3,8.8,16.4c1.3,0.4,2.5,0.6,3.8,0.6
		c5.6,0,10.8-3.7,12.6-9.3l55.1-182C298.2,206,294.3,198.7,287.4,196.6"/>
	<path style="fill:#363b66" class="st0" d="M498.9,0H13.1C5.9,0,0,5.9,0,13.1v485.7c0,7.3,5.9,13.1,13.1,13.1h485.7c7.2,0,13.1-5.9,13.1-13.1V13.1
		C512,5.9,506.1,0,498.9,0 M485.7,78.8h-52.5V26.3h52.5V78.8z M105,26.3H407v52.5H105V26.3z M26.3,26.3h52.5v52.5H26.3V26.3z
		 M26.3,105h459.5v380.7H26.3V105z"/>
</g>
</svg>
