<?xml version="1.0" encoding="utf-8"?>
<!-- Generator: Adobe Illustrator 21.1.0, SVG Export Plug-In . SVG Version: 6.00 Build 0)  -->
<svg version="1.1" id="Слой_1" xmlns="http://www.w3.org/2000/svg" xmlns:xlink="http://www.w3.org/1999/xlink" x="0px" y="0px"
	 viewBox="0 0 512 508" style="enable-background:new 0 0 512 508;" xml:space="preserve">
<style type="text/css">
	.st0{clip-path:url(#SVGID_2_);}
</style>
<g>
	<defs>
		<rect id="SVGID_1_" width="512" height="508"/>
	</defs>
	<clipPath id="SVGID_2_">
		<use xlink:href="#SVGID_1_"  style="overflow:visible;"/>
	</clipPath>
	<path style="fill:#363b66" class="st0" d="M493.9,98.4c-11.7-11.7-27.3-18.1-43.8-18.1c-16.5,0-32.2,6.4-43.9,18.1L369,135.6V13.8
		C369,6.2,362.9,0,355.3,0H124c-3.7,0-7.2,1.5-9.7,4L4.1,114.2c-2.6,2.6-4.1,6.1-4.1,9.7v370.3c0,7.6,6.3,13.8,13.9,13.8h341.4
		c7.6,0,13.7-6.2,13.7-13.8V310.9l124.9-124.8c11.7-11.7,18.2-27.3,18.2-43.8C512,125.7,505.6,110.1,493.9,98.4 M238.1,388.5
		l-46.5,12.2l12.2-46.5L238.1,388.5z M265.1,375.9l-48.7-48.7L391.7,152l48.7,48.7L265.1,375.9z M110.1,47v63.1h-63L110.1,47z
		 M341.4,480.5H27.5V137.7H124c7.6,0,13.7-6.2,13.7-13.8V27.5h203.8v135.6L187.2,317.5c-0.1,0.1-0.1,0.1-0.2,0.2
		c-1.8,1.7-3.1,3.9-3.7,6.3L159,416.5c-1.2,4.7,0.1,9.8,3.6,13.2c2.6,2.6,6.1,4,9.7,4c1.2,0,2.3-0.1,3.5-0.5l92.5-24.3
		c2.5-0.6,4.6-2,6.3-3.7c0.1-0.1,0.1-0.1,0.2-0.2l66.6-66.7V480.5z M474.4,166.6l-14.6,14.6l-48.7-48.7l14.6-14.6
		c6.5-6.5,15.1-10.1,24.3-10.1c9.2,0,17.8,3.6,24.3,10.1c6.5,6.5,10.1,15.1,10.1,24.3C484.5,151.4,480.9,160.1,474.4,166.6"/>
	<path style="fill:#363b66" class="st0" d="M117.1,406.1H77.2c-7.6,0-13.8,6.2-13.8,13.8c0,7.6,6.2,13.8,13.8,13.8h39.9c7.6,0,13.8-6.2,13.8-13.8
		C130.9,412.3,124.7,406.1,117.1,406.1"/>
	<path style="fill:#363b66" class="st0" d="M124,351.1H77.2c-7.6,0-13.8,6.2-13.8,13.8c0,7.6,6.2,13.8,13.8,13.8H124c7.6,0,13.8-6.2,13.8-13.8
		C137.8,357.2,131.6,351.1,124,351.1"/>
	<path style="fill:#363b66" class="st0" d="M137.8,296H77.2c-7.6,0-13.8,6.2-13.8,13.8c0,7.6,6.2,13.8,13.8,13.8h60.6c7.6,0,13.8-6.2,13.8-13.8
		C151.5,302.2,145.4,296,137.8,296"/>
	<path style="fill:#363b66" class="st0" d="M77.2,268.5h100.5c7.6,0,13.8-6.2,13.8-13.8c0-7.6-6.2-13.8-13.8-13.8H77.2c-7.6,0-13.8,6.2-13.8,13.8
		C63.4,262.3,69.6,268.5,77.2,268.5"/>
	<path style="fill:#363b66" class="st0" d="M77.2,213.4h156.9c7.6,0,13.8-6.2,13.8-13.8c0-7.6-6.2-13.8-13.8-13.8H77.2c-7.6,0-13.8,6.2-13.8,13.8
		C63.4,207.2,69.6,213.4,77.2,213.4"/>
	<path style="fill:#363b66" class="st0" d="M179.1,158.3h118.4c7.6,0,13.8-6.2,13.8-13.8c0-7.6-6.2-13.8-13.8-13.8H179.1c-7.6,0-13.8,6.2-13.8,13.8
		C165.3,152.2,171.5,158.3,179.1,158.3"/>
	<path style="fill:#363b66" class="st0" d="M179.1,103.3h118.4c7.6,0,13.8-6.2,13.8-13.8c0-7.6-6.2-13.8-13.8-13.8H179.1c-7.6,0-13.8,6.2-13.8,13.8
		C165.3,97.1,171.5,103.3,179.1,103.3"/>
</g>
</svg>
