<?xml version="1.0" encoding="utf-8"?>
<!-- Generator: Adobe Illustrator 21.1.0, SVG Export Plug-In . SVG Version: 6.00 Build 0)  -->
<svg version="1.1" id="Слой_1" xmlns="http://www.w3.org/2000/svg" xmlns:xlink="http://www.w3.org/1999/xlink" x="0px" y="0px"
	 viewBox="0 0 100 100" style="enable-background:new 0 0 100 100;" xml:space="preserve">
<g>
	<path  style="fill:#68cdbc" d="M50,0C22.4,0,0,22.4,0,50s22.4,50,50,50s50-22.4,50-50S77.6,0,50,0L50,0z M76.4,72.9l-4,4c-0.7,0.7-2.8,1.2-2.9,1.2
		c-12.7,0.1-24.9-4.9-33.8-13.8c-9-9-14-21.2-13.8-33.9c0,0,0.5-2.1,1.2-2.8l4-4c1.5-1.5,4.3-2.1,6.3-1.5l0.9,0.3
		c2,0.7,4,2.8,4.6,4.8l2,7.4c0.5,2-0.2,4.9-1.7,6.3l-2.7,2.7c2.6,9.7,10.3,17.3,20,20L59,61c1.5-1.5,4.3-2.2,6.3-1.7l7.4,2
		c2,0.6,4.2,2.6,4.8,4.6l0.3,0.9C78.5,68.7,77.9,71.5,76.4,72.9L76.4,72.9z"/>
</g>
</svg>
